<?xml version="1.0"?>
<svg xmlns="http://www.w3.org/2000/svg" width="1520" height="700" viewBox="0 72 1520 628" font-family="&#39;Helvetica Neue&#39;, Helvetica, Arial, sans-serif">
<defs>
  <filter id="cardShadow" x="-20%" y="-20%" width="140%" height="160%"><feDropShadow dx="0" dy="2" stdDeviation="3" flood-color="#161e2c" flood-opacity="0.10"></feDropShadow></filter>
  <marker id="hSolid" markerWidth="11" markerHeight="11" refX="8.5" refY="5" orient="auto" markerUnits="userSpaceOnUse"><path d="M0 0 L10 5 L0 10 Z" fill="#5b6573"></path></marker>
  <marker id="hDash" markerWidth="11" markerHeight="11" refX="8.5" refY="5" orient="auto" markerUnits="userSpaceOnUse"><path d="M0 0 L10 5 L0 10 Z" fill="#a0a8b4"></path></marker>
</defs>
<rect x="0" y="72" width="1520" height="628" fill="#ffffff"></rect>
<rect x="48" y="96" width="288" height="470" rx="16" fill="#eef4fd" stroke="#cfe0fa" stroke-width="1.5"></rect>
<circle cx="70" cy="121" r="4.5" fill="#2f6fe0"></circle>
<text x="82" y="121" font-size="16" font-weight="700" fill="#1f5fd0" dominant-baseline="central">Presentation</text>
<text x="318" y="121" font-family="ui-monospace, &#39;SF Mono&#39;, SFMono-Regular, Menlo, Consolas, &#39;Liberation Mono&#39;, monospace" font-size="10.5" font-weight="500" letter-spacing="1" fill="#1f5fd0" fill-opacity="0.62" text-anchor="end" dominant-baseline="central">UI LAYER</text>
<rect x="372" y="96" width="372" height="470" rx="16" fill="#ecf7f0" stroke="#c7e8d4" stroke-width="1.5"></rect>
<circle cx="394" cy="121" r="4.5" fill="#1e9e57"></circle>
<text x="406" y="121" font-size="16" font-weight="700" fill="#178a46" dominant-baseline="central">Domain</text>
<text x="726" y="121" font-family="ui-monospace, &#39;SF Mono&#39;, SFMono-Regular, Menlo, Consolas, &#39;Liberation Mono&#39;, monospace" font-size="10.5" font-weight="500" letter-spacing="1" fill="#178a46" fill-opacity="0.62" text-anchor="end" dominant-baseline="central">USE CASES + ABSTRACTION</text>
<rect x="780" y="96" width="372" height="470" rx="16" fill="#fbf3e3" stroke="#f0ddb6" stroke-width="1.5"></rect>
<circle cx="802" cy="121" r="4.5" fill="#d98a12"></circle>
<text x="814" y="121" font-size="16" font-weight="700" fill="#a96f12" dominant-baseline="central">Data</text>
<text x="1134" y="121" font-family="ui-monospace, &#39;SF Mono&#39;, SFMono-Regular, Menlo, Consolas, &#39;Liberation Mono&#39;, monospace" font-size="10.5" font-weight="500" letter-spacing="1" fill="#a96f12" fill-opacity="0.62" text-anchor="end" dominant-baseline="central">REPOSITORIES</text>
<rect x="1188" y="96" width="284" height="470" rx="16" fill="#f3edfb" stroke="#dccbf2" stroke-width="1.5"></rect>
<circle cx="1210" cy="121" r="4.5" fill="#7c4dcc"></circle>
<text x="1222" y="121" font-size="16" font-weight="700" fill="#6a3cc0" dominant-baseline="central">Local Storage</text>
<text x="1454" y="121" font-family="ui-monospace, &#39;SF Mono&#39;, SFMono-Regular, Menlo, Consolas, &#39;Liberation Mono&#39;, monospace" font-size="10.5" font-weight="500" letter-spacing="1" fill="#6a3cc0" fill-opacity="0.62" text-anchor="end" dominant-baseline="central">ROOM</text>
<path d="M192 250 L192 360" fill="none" stroke="#5b6573" stroke-width="2" stroke-linecap="round" stroke-linejoin="round" marker-end="url(#hSolid)"></path>
<path d="M312 391 L343 391 Q354 391 354 380 L354 263 Q354 252 365 252 L396 252" fill="none" stroke="#5b6573" stroke-width="2" stroke-linecap="round" stroke-linejoin="round" marker-end="url(#hSolid)"></path>
<path d="M558 358 L558 392" fill="none" stroke="#5b6573" stroke-width="2" stroke-linecap="round" stroke-linejoin="round" marker-end="url(#hSolid)"></path>
<path d="M804 193.4 L773 193.4 Q762 193.4 762 204.4 L762 417 Q762 428 751 428 L720 428" fill="none" stroke="#a0a8b4" stroke-width="2" stroke-linecap="round" stroke-linejoin="round" stroke-dasharray="7 6" marker-end="url(#hDash)"></path>
<path d="M966 212 L966 268" fill="none" stroke="#5b6573" stroke-width="2" stroke-linecap="round" stroke-linejoin="round" marker-end="url(#hSolid)"></path>
<path d="M966 404 L966 346" fill="none" stroke="#a0a8b4" stroke-width="2" stroke-linecap="round" stroke-linejoin="round" stroke-dasharray="7 6" marker-end="url(#hDash)"></path>
<path d="M1128 435 L1159 435 Q1170 435 1170 424 L1170 230 Q1170 219 1181 219 L1212 219" fill="none" stroke="#5b6573" stroke-width="2" stroke-linecap="round" stroke-linejoin="round" marker-end="url(#hSolid)"></path>
<path d="M1330 250 L1330 360" fill="none" stroke="#5b6573" stroke-width="2" stroke-linecap="round" stroke-linejoin="round" marker-end="url(#hSolid)"></path>
<path d="M732 636 L732 258 Q732 252 726 252 L720 252" fill="none" stroke="#a0a8b4" stroke-width="2" stroke-linecap="round" stroke-linejoin="round" stroke-dasharray="7 6" marker-end="url(#hDash)"></path>
<path d="M792 636 L792 174.6 Q792 168.6 798 168.6 L804 168.6" fill="none" stroke="#a0a8b4" stroke-width="2" stroke-linecap="round" stroke-linejoin="round" stroke-dasharray="7 6" marker-end="url(#hDash)"></path>
<path d="M850 636 L850 466" fill="none" stroke="#a0a8b4" stroke-width="2" stroke-linecap="round" stroke-linejoin="round" stroke-dasharray="7 6" marker-end="url(#hDash)"></path>
<path d="M1460 636 L1460 225 Q1460 219 1454 219 L1448 219" fill="none" stroke="#a0a8b4" stroke-width="2" stroke-linecap="round" stroke-linejoin="round" stroke-dasharray="7 6" marker-end="url(#hDash)"></path>
<rect x="72" y="188" width="240" height="62" rx="11" fill="#ffffff" stroke="#b7d1f6" stroke-width="1.5" filter="url(#cardShadow)"></rect>
<text x="192" y="219" font-size="15.5" font-weight="600" fill="#222a38" text-anchor="middle" dominant-baseline="central">Compose Screen</text>
<rect x="72" y="360" width="240" height="62" rx="11" fill="#ffffff" stroke="#b7d1f6" stroke-width="1.5" filter="url(#cardShadow)"></rect>
<text x="192" y="391" font-size="15.5" font-weight="600" fill="#222a38" text-anchor="middle" dominant-baseline="central">InventoryViewModel</text>
<rect x="396" y="392" width="324" height="72" rx="11" fill="#ffffff" stroke="#aedcc1" stroke-width="1.5" filter="url(#cardShadow)"></rect>
<text x="558" y="419" font-size="15.5" font-weight="600" fill="#222a38" text-anchor="middle" dominant-baseline="central">ProductRepository</text>
<text x="558" y="442" font-family="ui-monospace, &#39;SF Mono&#39;, SFMono-Regular, Menlo, Consolas, &#39;Liberation Mono&#39;, monospace" font-size="11" fill="#178a46" text-anchor="middle" dominant-baseline="central">«interface»</text>
<rect x="804" y="150" width="324" height="62" rx="11" fill="#ffffff" stroke="#ead0a0" stroke-width="1.5" filter="url(#cardShadow)"></rect>
<text x="966" y="181" font-size="15.5" font-weight="600" fill="#222a38" text-anchor="middle" dominant-baseline="central">DefaultProductRepository</text>
<rect x="804" y="268" width="324" height="78" rx="11" fill="#ffffff" stroke="#ead0a0" stroke-width="1.5" filter="url(#cardShadow)"></rect>
<text x="966" y="298" font-size="15.5" font-weight="600" fill="#222a38" text-anchor="middle" dominant-baseline="central">ProductLocalDataSource</text>
<text x="966" y="321" font-family="ui-monospace, &#39;SF Mono&#39;, SFMono-Regular, Menlo, Consolas, &#39;Liberation Mono&#39;, monospace" font-size="11" fill="#a96f12" text-anchor="middle" dominant-baseline="central">«interface»</text>
<rect x="804" y="404" width="324" height="62" rx="11" fill="#ffffff" stroke="#ead0a0" stroke-width="1.5" filter="url(#cardShadow)"></rect>
<text x="966" y="435" font-size="15.5" font-weight="600" fill="#222a38" text-anchor="middle" dominant-baseline="central">RoomProductLocalDataSource</text>
<rect x="1212" y="188" width="236" height="62" rx="11" fill="#ffffff" stroke="#cdb6ef" stroke-width="1.5" filter="url(#cardShadow)"></rect>
<text x="1330" y="219" font-size="15.5" font-weight="600" fill="#222a38" text-anchor="middle" dominant-baseline="central">ProductDao</text>
<rect x="1212" y="360" width="236" height="62" rx="11" fill="#ffffff" stroke="#cdb6ef" stroke-width="1.5" filter="url(#cardShadow)"></rect>
<text x="1330" y="391" font-size="15.5" font-weight="600" fill="#222a38" text-anchor="middle" dominant-baseline="central">Room Database</text>
<rect x="396" y="146" width="324" height="212" rx="11" fill="#ffffff" stroke="#aedcc1" stroke-width="1.5" filter="url(#cardShadow)"></rect>
<text x="416" y="176" font-size="15.5" font-weight="600" fill="#222a38">ProductUseCases</text>
<text x="416" y="208" font-family="ui-monospace, &#39;SF Mono&#39;, SFMono-Regular, Menlo, Consolas, &#39;Liberation Mono&#39;, monospace" font-size="12.5" fill="#9cc6ad">├</text>
<text x="434" y="208" font-family="ui-monospace, &#39;SF Mono&#39;, SFMono-Regular, Menlo, Consolas, &#39;Liberation Mono&#39;, monospace" font-size="12.5" font-weight="500" fill="#2c6a44">GetProductsUseCase</text>
<text x="416" y="235" font-family="ui-monospace, &#39;SF Mono&#39;, SFMono-Regular, Menlo, Consolas, &#39;Liberation Mono&#39;, monospace" font-size="12.5" fill="#9cc6ad">├</text>
<text x="434" y="235" font-family="ui-monospace, &#39;SF Mono&#39;, SFMono-Regular, Menlo, Consolas, &#39;Liberation Mono&#39;, monospace" font-size="12.5" font-weight="500" fill="#2c6a44">AddProductUseCase</text>
<text x="416" y="262" font-family="ui-monospace, &#39;SF Mono&#39;, SFMono-Regular, Menlo, Consolas, &#39;Liberation Mono&#39;, monospace" font-size="12.5" fill="#9cc6ad">├</text>
<text x="434" y="262" font-family="ui-monospace, &#39;SF Mono&#39;, SFMono-Regular, Menlo, Consolas, &#39;Liberation Mono&#39;, monospace" font-size="12.5" font-weight="500" fill="#2c6a44">DecreaseProductQuantityUseCase</text>
<text x="416" y="289" font-family="ui-monospace, &#39;SF Mono&#39;, SFMono-Regular, Menlo, Consolas, &#39;Liberation Mono&#39;, monospace" font-size="12.5" fill="#9cc6ad">└</text>
<text x="434" y="289" font-family="ui-monospace, &#39;SF Mono&#39;, SFMono-Regular, Menlo, Consolas, &#39;Liberation Mono&#39;, monospace" font-size="12.5" font-weight="500" fill="#2c6a44">DeleteProductUseCase</text>
<rect x="548" y="636" width="924" height="54" rx="12" fill="#272d39" stroke="#6f7888" stroke-width="1.5" stroke-dasharray="5 4"></rect>
<text x="572" y="663" font-size="15.5" font-weight="600" fill="#f4f6fa" dominant-baseline="central">AppContainer</text>
<circle cx="688" cy="663" r="2" fill="#6f7888"></circle>
<text x="702" y="663" font-family="ui-monospace, &#39;SF Mono&#39;, SFMono-Regular, Menlo, Consolas, &#39;Liberation Mono&#39;, monospace" font-size="11.5" fill="#aab2c0" dominant-baseline="central">manual DI · constructs &amp; wires the object graph</text>
<rect x="48" y="632" width="480" height="92" rx="12" fill="#fbfcfd" stroke="#e6e9ee" stroke-width="1.5"></rect>
<text x="66" y="654" font-family="ui-monospace, &#39;SF Mono&#39;, SFMono-Regular, Menlo, Consolas, &#39;Liberation Mono&#39;, monospace" font-size="10" font-weight="600" letter-spacing="1.6" fill="#98a1af">LEGEND</text>
<line x1="68" y1="678" x2="98" y2="678" stroke="#5b6573" stroke-width="2"></line><path d="M96 674 L106 678 L96 682 Z" fill="#5b6573"></path>
<text x="120" y="678" font-size="13" fill="#4a5160" dominant-baseline="central"><tspan font-weight="600" fill="#2a3140">Runtime dependency</tspan> — uses / calls</text>
<line x1="68" y1="704" x2="96" y2="704" stroke="#a0a8b4" stroke-width="2" stroke-dasharray="6 5"></line><path d="M96 700 L106 704 L96 708 Z" fill="#a0a8b4"></path>
<text x="120" y="704" font-size="13" fill="#4a5160" dominant-baseline="central"><tspan font-weight="600" fill="#2a3140">Implements / provides</tspan> — interface or DI</text>
</svg>